<?xml version="1.0" encoding="UTF-8" standalone="no"?>
<!-- Created with Inkscape (http://www.inkscape.org/) -->

<svg
   xmlns:dc="http://purl.org/dc/elements/1.1/"
   xmlns:cc="http://creativecommons.org/ns#"
   xmlns:rdf="http://www.w3.org/1999/02/22-rdf-syntax-ns#"
   xmlns:svg="http://www.w3.org/2000/svg"
   xmlns="http://www.w3.org/2000/svg"
   xmlns:sodipodi="http://sodipodi.sourceforge.net/DTD/sodipodi-0.dtd"
   xmlns:inkscape="http://www.inkscape.org/namespaces/inkscape"
   width="192"
   height="192"
   id="svg2"
   version="1.1"
   inkscape:version="0.48.5 r10040"
   sodipodi:docname="New document 1">
  <defs
     id="defs4">
    <clipPath
       clipPathUnits="userSpaceOnUse"
       id="clipPath3790">
      <rect
         style="fill:#ffffff;fill-opacity:1;stroke:none"
         id="rect3792"
         width="192"
         height="192"
         x="0"
         y="860.36218" />
    </clipPath>
  </defs>
  <sodipodi:namedview
     id="base"
     pagecolor="#ffffff"
     bordercolor="#666666"
     borderopacity="1.0"
     inkscape:pageopacity="0"
     inkscape:pageshadow="2"
     inkscape:zoom="4.0104167"
     inkscape:cx="96"
     inkscape:cy="96"
     inkscape:document-units="px"
     inkscape:current-layer="layer1"
     showgrid="false"
     inkscape:snap-page="true"
     inkscape:showpageshadow="false"
     showborder="false"
     inkscape:window-width="1680"
     inkscape:window-height="987"
     inkscape:window-x="-8"
     inkscape:window-y="-8"
     inkscape:window-maximized="1" />
  <metadata
     id="metadata7">
    <rdf:RDF>
      <cc:Work
         rdf:about="">
        <dc:format>image/svg+xml</dc:format>
        <dc:type
           rdf:resource="http://purl.org/dc/dcmitype/StillImage" />
        <dc:title></dc:title>
      </cc:Work>
    </rdf:RDF>
  </metadata>
  <g
     inkscape:label="Layer 1"
     inkscape:groupmode="layer"
     id="layer1"
     transform="translate(0,-860.36218)">
    <rect
       style="fill:#fffcf0;fill-opacity:1;stroke:none"
       id="rect3794"
       width="192"
       height="192"
       x="0"
       y="0"
       transform="translate(0,860.36218)" />
    <g
       id="g3776"
       clip-path="url(#clipPath3790)">
      <g
         id="text2985"
         style="font-size:89.35219574px;font-style:normal;font-variant:normal;font-weight:900;font-stretch:normal;line-height:125%;letter-spacing:0px;word-spacing:8.93521976px;fill:#d40000;fill-opacity:1;stroke:none;font-family:'Lobster 1.4';-inkscape-font-specification:'Lobster 1.4'"
         transform="matrix(0.92635877,-0.37852542,0.37928021,0.92451524,0,0)">
        <path
           id="path3770"
           style=""
           d="m -329.65242,908.2085 -12.15174,56.82727 12.86655,0 7.32679,-34.22145 c 0.83019,-0.0893 1.6269,-0.15634 2.39014,-0.20105 0.76317,-0.0446 1.33651,-0.067 1.72001,-0.067 3.20729,0.0819 5.43734,1.19138 6.69016,3.32833 1.25273,2.13701 1.85213,4.81009 1.79819,8.01926 0.039,3.64107 -0.61992,7.17043 -1.9769,10.58809 -1.35705,3.41769 -3.64667,5.24938 -6.86886,5.49509 -1.00895,0.0112 -1.98437,-0.23454 -2.92625,-0.73714 -0.94193,-0.50259 -1.96202,-1.32909 -3.06027,-2.47949 -0.78929,2.04019 -1.17648,3.76764 -1.16156,5.18236 0.12842,2.66005 1.12245,4.44335 2.98209,5.34989 1.85959,0.90654 3.81414,1.32723 5.86366,1.26208 4.93909,-0.15884 8.84075,-1.74731 11.70499,-4.76539 2.86415,-3.01807 4.89936,-6.51269 6.10565,-10.48385 1.20619,-3.97114 1.79193,-7.46576 1.75724,-10.48386 0.0353,-3.43626 -0.77257,-6.48164 -2.42365,-9.13614 -1.65118,-2.65444 -4.35777,-4.40423 -8.11977,-5.24937 2.91317,-1.7088 5.12833,-3.83089 6.64548,-6.36627 1.51705,-2.53529 2.28026,-5.1488 2.28962,-7.84055 0.0279,-3.79736 -1.50226,-7.08101 -4.59041,-9.85096 -3.08824,-2.76981 -7.90202,-4.22177 -14.44136,-4.35586 -5.71684,0.0641 -11.02164,1.19693 -15.91441,3.39865 -4.89281,2.20185 -8.84742,5.08865 -11.86384,8.66043 -3.01643,3.57189 -4.56849,7.44487 -4.65618,11.61895 0.0298,2.96165 0.88607,5.08002 2.56884,6.35509 1.68278,1.27515 4.01335,1.89689 6.99172,1.86521 -0.0912,-0.32014 -0.31088,-0.8637 -0.65896,-1.63066 -0.34811,-0.76689 -0.54543,-2.24863 -0.59195,-4.44522 0.27735,-7.35466 2.69355,-12.81623 7.2486,-16.38475 4.55502,-3.56839 9.58474,-5.34424 15.08916,-5.32755 4.20505,0.0838 7.23181,1.05552 9.0803,2.91508 1.8484,1.85968 2.75308,4.10462 2.71404,6.73483 -0.0894,3.535 -1.34031,6.78514 -3.75275,9.75044 -2.41251,2.96537 -5.45044,4.54018 -9.1138,4.72443 l -0.53611,0 4.1995,-19.83593 z" />
        <path
           id="path3772"
           style=""
           d="m -283.17934,908.47655 c 0.0484,2.01418 0.73342,3.68207 2.05508,5.00366 1.32164,1.3217 2.98952,2.00673 5.00366,2.05508 2.01782,-0.0484 3.7006,-0.73337 5.04833,-2.05508 1.34769,-1.3216 2.0476,-2.98948 2.09975,-5.00366 -0.0521,-2.01778 -0.75206,-3.70056 -2.09975,-5.04833 -1.34773,-1.34765 -3.03051,-2.04756 -5.04833,-2.09975 -2.01414,0.0522 -3.68202,0.7521 -5.00366,2.09975 -1.32166,1.34777 -2.00669,3.03055 -2.05508,5.04833 z m -1.78702,11.88369 -6.07587,28.68169 c -0.46165,2.15933 -0.69992,4.09527 -0.71481,5.80782 0.0633,3.73041 0.98659,6.45561 2.76989,8.17562 1.78329,1.72 4.04685,2.56884 6.79067,2.5465 2.57442,0.22152 5.6682,-0.71294 9.28135,-2.80339 3.61311,-2.09044 6.7739,-6.66595 9.48237,-13.72655 l -3.75274,0 c -0.70366,2.28219 -1.77587,4.15111 -3.21664,5.60678 -1.4408,1.45568 -3.04912,2.20772 -4.82495,2.25611 -1.24721,0.0186 -2.1705,-0.21964 -2.76989,-0.71481 -0.59941,-0.49514 -0.89724,-1.35887 -0.89351,-2.59118 -0.002,-0.39834 0.0242,-0.83021 0.0782,-1.29559 0.054,-0.46536 0.14704,-0.98657 0.27922,-1.56364 l 6.43327,-30.37936 z" />
        <path
           id="path3774"
           style=""
           d="m -237.34889,956.90482 c -0.15825,0.69993 -0.62362,1.17646 -1.39611,1.42962 -0.77254,0.25317 -1.707,0.3723 -2.80339,0.3574 -1.24349,-0.0167 -2.48696,-0.0949 -3.7304,-0.23454 -1.24349,-0.13961 -2.26358,-0.24013 -3.06028,-0.30156 l 21.89101,-37.7955 -22.96322,0 c -3.20734,0.14711 -5.72778,1.19326 -7.56133,3.13846 -1.83357,1.94529 -2.76803,3.90728 -2.80339,5.886 0.0428,1.29749 0.47095,2.27662 1.28442,2.93741 0.81346,0.66086 1.75537,0.9922 2.82573,0.99404 1.2174,0.009 2.31195,-0.36668 3.28365,-1.12806 0.97168,-0.76131 1.48545,-1.96383 1.5413,-3.60755 -0.041,-0.95304 -0.20477,-1.4817 -0.49143,-1.58598 -0.28668,-0.10421 -0.45049,-0.23079 -0.49143,-0.37974 0.0316,-0.60681 0.50445,-1.00144 1.41845,-1.18391 0.91397,-0.18238 2.07926,-0.26429 3.49586,-0.24571 l 5.00366,0 -22.78452,39.85057 23.67803,0 c 3.46419,-0.14148 6.14099,-1.22113 8.03042,-3.23898 1.88937,-2.01784 2.84617,-4.12503 2.87041,-6.32159 0.004,-1.23415 -0.31649,-2.25051 -0.96053,-3.0491 -0.6441,-0.79856 -1.63441,-1.21181 -2.97092,-1.23975 -1.65488,0.0596 -2.90207,0.4989 -3.74157,1.31793 -0.83956,0.81907 -1.26025,1.66045 -1.26209,2.52417 -0.002,0.50261 0.13587,0.92703 0.41325,1.27325 0.27734,0.34625 0.70548,0.54729 1.28442,0.60312 z" />
      </g>
      <path
         transform="matrix(0.22822377,-0.09325684,0.09344194,0.22777166,-35.604765,887.3101)"
         d="m 605.71429,473.79074 a 272.85715,272.85715 0 1 1 -545.71429,0 272.85715,272.85715 0 1 1 545.71429,0 z"
         sodipodi:ry="272.85715"
         sodipodi:rx="272.85715"
         sodipodi:cy="473.79074"
         sodipodi:cx="332.85715"
         id="path2989"
         style="fill:none;stroke:#d40000;stroke-width:48.70769882;stroke-miterlimit:4;stroke-dasharray:none"
         sodipodi:type="arc" />
      <path
         sodipodi:nodetypes="csssc"
         inkscape:connector-curvature="0"
         id="path3759"
         d="m 132.46519,921.94539 c 0,0 8.12289,-14.44191 19.50484,-19.40143 10.8406,-4.72364 23.49085,2.70455 39.53136,-3.68057 11.92979,-4.7488 12.22244,-16.25678 23.92261,-21.31943 12.44574,-5.38524 29.07518,-2.07161 29.07518,-2.07161"
         style="fill:none;stroke:#d40000;stroke-width:12;stroke-linecap:butt;stroke-linejoin:miter;stroke-miterlimit:4;stroke-opacity:1;stroke-dasharray:none" />
      <path
         style="fill:none;stroke:#d40000;stroke-width:12;stroke-linecap:butt;stroke-linejoin:miter;stroke-miterlimit:4;stroke-opacity:1;stroke-dasharray:none"
         d="m 146.93325,943.60849 c 0,0 8.1229,-14.44193 19.50485,-19.40145 10.8406,-4.72363 23.49084,2.70455 39.53135,-3.68057 11.9298,-4.7488 12.22245,-16.25679 23.92261,-21.31942 12.44574,-5.38525 29.07519,-2.0716 29.07519,-2.0716"
         id="path3761"
         inkscape:connector-curvature="0"
         sodipodi:nodetypes="csssc" />
      <path
         sodipodi:nodetypes="csssc"
         inkscape:connector-curvature="0"
         id="path3763"
         d="m 151.13243,967.32724 c 0,0 8.85528,-14.7492 21.26349,-19.81425 11.81804,-4.82411 25.6089,2.76211 43.0957,-3.75888 13.00544,-4.8498 13.32448,-16.6026 26.07959,-21.77296 13.56791,-5.49982 31.69673,-2.11569 31.69673,-2.11569"
         style="fill:none;stroke:#d40000;stroke-width:12;stroke-linecap:butt;stroke-linejoin:miter;stroke-miterlimit:4;stroke-opacity:1;stroke-dasharray:none" />
      <path
         style="fill:none;stroke:#d40000;stroke-width:12;stroke-linecap:butt;stroke-linejoin:miter;stroke-miterlimit:4;stroke-opacity:1;stroke-dasharray:none"
         d="m 116.29234,902.10343 c 0,0 8.12289,-14.44193 19.50484,-19.40143 10.8406,-4.72365 23.49084,2.70454 39.53136,-3.6806 11.92981,-4.74878 12.22244,-16.25676 23.92262,-21.3194 12.44574,-5.38526 29.07517,-2.07163 29.07517,-2.07163"
         id="path3765"
         inkscape:connector-curvature="0"
         sodipodi:nodetypes="csssc" />
      <path
         style="fill:none;stroke:#d40000;stroke-width:12;stroke-linecap:butt;stroke-linejoin:miter;stroke-miterlimit:4;stroke-opacity:1;stroke-dasharray:none"
         d="m 145.11659,994.28873 c 0,0 9.69755,-15.36372 23.28595,-20.63975 12.94213,-5.02511 28.04463,2.87718 47.19468,-3.91556 14.24243,-5.05183 14.59183,-17.29426 28.5601,-22.68007 14.85843,-5.72892 34.71154,-2.20382 34.71154,-2.20382"
         id="path3767"
         inkscape:connector-curvature="0"
         sodipodi:nodetypes="csssc" />
    </g>
  </g>
</svg>
